<?xml version="1.0" encoding="UTF-8"?>
<svg version="1.1" viewBox="0 0 1500 1500" xmlns="http://www.w3.org/2000/svg">
<rect width="1500" height="1500" fill="transparent"/>
<g transform="matrix(.66667 0 0 .66667 249.5 249.5)">
<svg width="1500" height="1500" data-background-color="#ffffff" viewBox="0 0 280 280" xmlns="http://www.w3.org/2000/svg" xmlns:xlink="http://www.w3.org/1999/xlink">
<g transform="translate(.14 .14)">
<svg width="279.72" height="279.72" viewBox="0 0 279.72 279.72">
<svg width="279.72" height="279.72" viewBox="0 0 279.72 279.72">
<svg width="279.72" height="279.72" viewBox="0 0 279.72 279.72">
<svg width="279.72" height="279.72" viewBox="0 0 279.72 279.72">
<svg width="279.72" height="279.72" viewBox="0 0 279.72 279.72">
<g transform="translate(94.326 73.929)">
<svg width="91.068" height="131.86" viewBox="0 0 91.06809839519163 131.8612725556674">
<svg class="icon-xg-0" width="91.068" height="131.86" enable-background="new 0 0 100 100" data-fill-palette-color="accent" version="1.1" viewBox="26.026 15.289 47.94600015876806 69.42299999999999" xml:space="preserve" xmlns="http://www.w3.org/2000/svg" xmlns:xlink="http://www.w3.org/1999/xlink"><g fill="#fff" data-fill-palette-color="accent"><path d="m36.555 15.289c-5.805 0-10.527 4.723-10.527 10.528s4.723 10.527 10.527 10.527 10.527-4.723 10.527-10.527c0-5.806-4.723-10.528-10.527-10.528z" data-fill-palette-color="accent"/><path d="m36.555 43.081c-5.807 0-10.529 4.723-10.529 10.528s4.723 10.527 10.529 10.527c5.805 0 10.527-4.723 10.527-10.527 0-5.806-4.723-10.528-10.527-10.528z" data-fill-palette-color="accent"/><path d="m63.445 43.023c-5.805 0-10.527 4.723-10.527 10.528s4.723 10.527 10.527 10.527 10.527-4.723 10.527-10.527c1e-3 -5.805-4.722-10.528-10.527-10.528z" data-fill-palette-color="accent"/><path d="m63.445 30.229c2.604 0 4.721-2.118 4.721-4.722 0-2.603-2.117-4.72-4.721-4.72-2.602 0-4.721 2.117-4.721 4.72 1e-3 2.604 2.12 4.722 4.721 4.722z" data-fill-palette-color="accent"/><path d="m63.445 74.212c-2.602 0-4.721 2.117-4.721 4.72 0 2.604 2.119 4.722 4.721 4.722 2.604 0 4.721-2.118 4.721-4.722 0-2.602-2.117-4.72-4.721-4.72z" data-fill-palette-color="accent"/><path d="m36.555 75.27c-2.604 0-4.721 2.117-4.721 4.72 0 2.604 2.117 4.722 4.721 4.722 2.602 0 4.721-2.118 4.721-4.722-1e-3 -2.603-2.12-4.72-4.721-4.72z" data-fill-palette-color="accent"/></g></svg>
</svg>
</g>
<g fill="#fff">
<path d="m134.3 12.661 2.353 0.037 1.448 0.013c1.247 0.03 2.118 0.041 2.614 0.032 2.036-0.038 3.587-0.08 4.652-0.127 1.28-0.024 2.257-0.055 2.933-0.094l-0.022-1.176-0.08-2.149c-0.018-0.991-2e-3 -3.026 0.048-6.103l0.02-2.734c0.022-0.235 0.164-0.355 0.425-0.36l0.433 0.032c0.108 0.025 0.302 0.035 0.583 0.03 0.315-6e-3 0.536 0.014 0.665 0.058 0.263 0.076 0.396 0.204 0.399 0.384l-0.064 0.323c-0.023 0.181-0.057 0.527-0.102 1.037-0.044 0.503-0.107 1.279-0.188 2.326-0.066 0.785-0.1 2.565-0.102 5.339s0.011 4.945 0.041 6.513c0.02 1.092 5e-3 2.995-0.045 5.71l-0.033 2.584-0.011 1.559c7e-3 0.395 0.041 0.773 0.101 1.134l0.045 0.23c3e-3 0.161-0.056 0.249-0.176 0.265-0.114 0.016-0.184 0.024-0.211 0.024-0.26 0.052-0.729 0.084-1.405 0.096-0.208 4e-3 -0.314-0.122-0.319-0.376l-0.066-5.708c-0.035-0.422-0.049-0.86-0.044-1.316s4e-3 -0.865-3e-3 -1.227l-0.03-1.648-0.054-2.893-3.174 0.139c-1.118 0.048-2.629 0.089-4.531 0.124l-3.668 0.068c-0.991 0.018-1.762 0.019-2.311 3e-3 8e-3 0.442 1e-3 0.781-0.022 1.015-0.038 0.838-0.05 1.636-0.036 2.393l0.038 4.221c0.038 2.057 0.13 3.409 0.276 4.056 0.059 0.314 0.09 0.511 0.092 0.592 7e-3 0.362-0.09 0.591-0.289 0.689-0.193 0.091-0.4 0.131-0.621 0.122-0.221-3e-3 -0.372-3e-3 -0.452-2e-3 -0.912-0.037-1.953 0.019-3.123 0.168-0.441 0.062-0.711-0.037-0.81-0.296-0.092-0.26-0.136-0.624-0.131-1.093s5e-3 -0.821 1e-3 -1.056l-0.331-13.524-0.108-10.13c-0.01-0.516 0.041-0.848 0.153-0.998 0.118-0.143 0.308-0.217 0.568-0.222l0.855 0.025c0.134-2e-3 0.435-0.035 0.903-0.097 0.127-0.029 0.348-0.047 0.663-0.053l1.015 0.022c0.208 0.023 0.496 0.031 0.865 0.024 0.281-5e-3 0.457 0.075 0.527 0.241s0.1 0.343 0.091 0.531c-0.01 0.181-0.014 0.312-0.013 0.393 0.022 1.192-3e-3 2.741-0.075 4.645l-0.079 3.881z" data-fill-palette-color="primary"/>
<path d="m2.733 141.1c0-5.865 4.754-10.619 10.619-10.619s10.619 4.754 10.619 10.619-4.754 10.619-10.619 10.619-10.619-4.754-10.619-10.619z" data-fill-palette-color="primary"/>
<path d="m255.75 141.1c0-5.865 4.754-10.619 10.619-10.619s10.619 4.754 10.619 10.619-4.754 10.619-10.619 10.619-10.619-4.754-10.619-10.619z" data-fill-palette-color="primary"/>
</g>
<g fill="#fff">
<path d="m30.905 176.83c-0.61 0.362-1.414 0.977-2.412 1.842-1.005 0.868-1.868 1.664-2.59 2.387-0.463 0.552-1.241 1.349-2.332 2.391-1.087 1.033-1.965 1.809-2.633 2.327-0.332 0.284-0.744 0.663-1.234 1.14l-1.107 1.019-1.439 1.373c1.635 0.208 2.824 0.356 3.569 0.444l5.588 0.655 3.861 0.456c2.053 0.221 3.387 0.385 4.002 0.491 1.111 0.119 2.166 0.287 3.163 0.504 0.991 0.22 1.525 0.436 1.602 0.651 0.07 0.195-0.052 0.35-0.367 0.464-0.29 0.105-0.699 0.184-1.227 0.239l-0.963 0.176c-0.69 0.142-3.615 1.144-8.777 3.006-1.141 0.411-2.536 0.879-4.184 1.402-1.647 0.53-2.744 0.865-3.291 1.006-0.648 0.177-1.59 0.488-2.826 0.933l-3.522 1.313-0.18 0.065c-0.29 0.105-0.436 0.075-0.438-0.088l-0.027-0.075c-0.043-0.12-0.106-0.254-0.188-0.403-0.082-0.148-0.154-0.308-0.215-0.478-9e-3 -0.104 0.027-0.191 0.108-0.263 0.087-0.074 0.251-0.154 0.49-0.241l2.146-0.774c2.477-0.893 3.942-1.393 4.395-1.499 0.529-0.134 1.493-0.421 2.895-0.863 1.403-0.435 2.53-0.806 3.38-1.112 0.205-0.102 0.887-0.334 2.047-0.696l1.327-0.436 2.643-0.878c-0.307-0.082-0.615-0.134-0.923-0.159-0.496-0.092-1.027-0.16-1.591-0.206l-0.858-0.096c-0.95-0.127-2.063-0.26-3.338-0.399-1.271-0.147-2.352-0.281-3.243-0.401-1.027-0.121-2.347-0.268-3.962-0.44-1.606-0.168-2.876-0.291-3.808-0.368-1.708-0.096-2.581-0.195-2.617-0.296-0.025-0.069 0.059-0.221 0.252-0.454 0.187-0.231 0.31-0.386 0.367-0.464 0.203-0.266 0.671-0.737 1.403-1.414 0.728-0.668 1.379-1.231 1.955-1.688 0.383-0.302 1.381-1.374 2.996-3.217 1.357-1.472 2.068-2.235 2.134-2.287 0.39-0.419 1.082-1.038 2.075-1.86 0.51-0.483 0.97-0.884 1.383-1.203l-1.631 0.513-2.495 0.815-7.194 2.509-5.682 2.017c-0.221 0.08-0.379 0.065-0.475-0.042-0.087-0.104-0.155-0.243-0.204-0.418s-0.09-0.309-0.124-0.404l-0.328-0.79c-0.207-0.417-0.346-0.723-0.417-0.918-0.132-0.366-0.129-0.605 8e-3 -0.719 0.135-0.12 0.462-0.259 0.982-0.418 0.8-0.289 1.559-0.576 2.274-0.863l4.448-1.679c0.681-0.246 1.398-0.479 2.151-0.701 0.762-0.218 1.437-0.419 2.026-0.603 1.789-0.51 3.037-0.892 3.743-1.146l6.862-2.39 1.953-0.747c0.845-0.305 1.348-0.419 1.511-0.342 0.103 0.048 0.171 0.12 0.206 0.214 0.027 0.076 0.042 0.195 0.044 0.358 8e-3 0.161 0.06 0.345 0.156 0.553 0.105 0.212 0.226 0.509 0.365 0.894 0.168 0.466 0.269 0.815 0.302 1.045 4e-3 0.248-0.116 0.469-0.359 0.663-0.241 0.201-0.525 0.4-0.853 0.597-0.326 0.203-0.578 0.362-0.758 0.476z" data-fill-palette-color="secondary"/>
<path d="m73.91 233.36c0.557 1.775 0.652 3.637 0.285 5.587-0.366 1.96-0.925 3.704-1.676 5.233-0.756 1.525-1.433 2.658-2.03 3.398-1.005 1.247-2.366 2.534-4.082 3.862-1.72 1.333-3.792 2.189-6.214 2.567-2.423 0.379-4.849-0.412-7.28-2.371-3.328-2.683-4.133-6.525-2.416-11.527 0.783-2.252 2-4.481 3.65-6.688 1.426-1.768 3.152-3.152 5.18-4.151 2.033-0.995 4.041-1.484 6.025-1.468 1.993 0.015 3.632 0.54 4.915 1.575 1.163 0.938 2.006 1.669 2.529 2.194 0.527 0.52 0.899 1.116 1.114 1.789zm-19.79 16.474c2.128 1.716 4.431 2.105 6.908 1.168 2.473-0.932 4.795-2.744 6.965-5.436 1.325-1.643 2.303-3.358 2.936-5.146 0.637-1.793 0.841-3.466 0.613-5.019-0.219-1.554-0.91-2.799-2.074-3.737-0.099-0.08-0.365-0.294-0.798-0.644-0.433-0.349-0.865-0.581-1.297-0.697-0.437-0.12-0.899-0.144-1.387-0.073-1.197 0.128-2.24 0.285-3.13 0.472-0.9 0.187-2.011 0.642-3.334 1.365-1.329 0.719-2.567 1.79-3.715 3.214-1.358 1.685-2.418 3.421-3.18 5.209-0.761 1.787-1.059 3.501-0.892 5.141 0.166 1.64 0.961 3.035 2.385 4.183z" data-fill-palette-color="secondary"/>
<path d="m118.93 274.88c0.264-0.507 0.662-1.234 1.193-2.18 0.525-0.947 0.944-1.657 1.257-2.13 0.331-0.415 0.908-1.412 1.73-2.991 0.829-1.577 1.512-2.896 2.048-3.957l2.233-3.714c0.736-1.165 1.178-1.891 1.325-2.18 0.317-0.499 0.674-1.158 1.07-1.976l0.548-1.012c0.086-0.197 0.176-0.315 0.27-0.353 0.1-0.032 0.234 3e-3 0.401 0.104 0.144 0.077 0.321 0.133 0.533 0.167 0.218 0.035 0.354 0.057 0.407 0.065 0.152 0.024 0.222 0.073 0.211 0.146-8e-3 0.053-0.082 0.173-0.221 0.361-0.725 1.268-1.312 2.179-1.76 2.732-0.331 0.415-1.203 1.942-2.615 4.579-1.411 2.631-2.331 4.37-2.758 5.217-0.027 0.043-0.87 1.578-2.528 4.604-0.997 1.822-1.604 2.926-1.822 3.311-0.395 0.643-0.823 1.388-1.284 2.237-0.463 0.856-0.728 1.329-0.797 1.42-0.079 0.198-0.156 0.318-0.231 0.36-0.074 0.036-0.186 0.041-0.338 0.017-0.126-0.02-0.212-0.051-0.261-0.092-0.04-0.047-0.062-0.098-0.067-0.154-6e-3 -0.048-0.02-0.088-0.042-0.118l-0.309-2.014c-0.338-2.429-0.557-3.899-0.658-4.411l-1.429-7.739c0.019 0.051-0.142-1.061-0.484-3.335-0.186-1.597-0.381-2.985-0.586-4.165-0.081-0.298-0.206-1.322-0.374-3.072l-0.185-2.025c-0.054-0.3-0.066-0.54-0.037-0.718 0.016-0.099 0.052-0.158 0.109-0.176 0.051-0.019 0.103-0.031 0.158-0.036 0.054 2e-3 0.094 5e-3 0.121 0.01l1.33 0.212 0.119 0.019c0.232 0.037 0.378 0.098 0.439 0.182 0.067 0.092 0.101 0.196 0.103 0.312 8e-3 0.117 0.022 0.204 0.04 0.261 0.095 0.382 0.19 1.337 0.284 2.865 0.081 0.977 0.304 2.617 0.669 4.921 0.06 0.43 0.184 1.247 0.371 2.451 0.181 1.203 0.295 2.083 0.341 2.64 0.115 1.403 0.323 3.027 0.625 4.873l0.228 1.248c0.156 1.016 0.298 1.849 0.425 2.5 0.114 0.432 0.18 0.677 0.198 0.734z" data-fill-palette-color="secondary"/>
<path d="m172.02 249.96c0.329-0.068 0.646-0.154 0.951-0.257s0.57-0.187 0.795-0.253c0.54-0.158 0.94-0.26 1.198-0.308 0.303-0.061 0.53-0.061 0.68 0s0.251 0.178 0.302 0.352c0.036 0.122 0.063 0.264 0.083 0.426 0.024 0.154 0.041 0.295 0.05 0.425 0.338 2.184 0.822 4.391 1.453 6.622 0.162 0.651 0.438 1.645 0.829 2.983l1.348 4.474c0.128 0.367 0.251 0.75 0.367 1.15l0.473 1.474c0.427 1.271 0.731 2.216 0.911 2.833 0.137 0.469 0.207 0.756 0.209 0.86 4e-3 0.11 0.075 0.4 0.212 0.87l0.633 2.024c0.112 0.288 0.234 0.658 0.366 1.108 0.12 0.314 0.086 0.544-0.103 0.69-0.186 0.152-0.453 0.265-0.801 0.338l-3.377 0.986c-0.366 0.135-0.627 0.124-0.784-0.032-0.151-0.158-0.3-0.443-0.448-0.854-0.102-0.159-0.211-0.626-0.326-1.402-0.106-0.723-0.231-1.329-0.374-1.817-0.051-0.174-0.452-1.871-1.204-5.093-0.53-2.365-0.828-3.66-0.894-3.885l-0.985-3.659-0.908-3.399-0.519-2.027-0.311-1.354-0.457-1.563c-0.282-0.965-0.175-1.519 0.32-1.664 0.122-0.036 0.226-0.052 0.311-0.048z" data-fill-palette-color="secondary"/>
<path d="m223.98 219.56 0.284 0.312c0.401 0.442 0.564 0.696 0.489 0.764-0.114 0.104-0.257 0.206-0.427 0.307-0.171 0.101-0.361 0.246-0.569 0.435l-4.584 4.161-3.577 3.192c-0.114 0.104-0.516 0.523-1.206 1.258l-0.607 0.647 0.643 0.828c0.241 0.306 0.639 0.764 1.193 1.374 0.279 0.308 0.664 0.691 1.153 1.151 0.449 0.425 0.768 0.741 0.958 0.95l1.04 1.146c0.279 0.308 0.505 0.537 0.678 0.687 0.192-0.138 0.459-0.362 0.801-0.673l1.146-1.04c0.114-0.104 0.324-0.331 0.631-0.681 0.465-0.485 0.88-0.894 1.247-1.227 0.149-0.135 0.707-0.592 1.674-1.371l0.66-0.544c0.149-0.135 0.354-0.348 0.614-0.639 0.265-0.286 0.532-0.551 0.8-0.794l0.965-0.836c0.532-0.411 0.892-0.702 1.081-0.873 0.208-0.189 0.343-0.33 0.405-0.421l0.144-0.185c0.134-0.122 0.269-0.163 0.404-0.123 0.136 0.03 0.23 0.094 0.283 0.192 0.097 0.147 0.238 0.322 0.423 0.525 0.18 0.198 0.33 0.384 0.449 0.556 0.12 0.172 0.176 0.288 0.169 0.349-0.017 0.061-0.12 0.177-0.309 0.348l-1.247 0.929c-1.555 1.168-2.551 1.95-2.988 2.346-1.622 1.473-2.788 2.586-3.498 3.338-0.276 0.314-0.595 0.635-0.958 0.964-0.362 0.329-0.59 0.536-0.684 0.622-0.362 0.329-0.639 0.562-0.831 0.699l0.337 0.536c0.271 0.378 0.528 0.701 0.772 0.969 0.207 0.228 0.47 0.478 0.789 0.75 0.309 0.271 0.568 0.521 0.775 0.749l3.123 3.381 1.274 1.463c0.133 0.187 0.34 0.434 0.619 0.742 0.266-0.205 0.64-0.526 1.121-0.964 0.41-0.345 1.037-0.901 1.88-1.666l1.568-1.369c0.345-0.277 0.851-0.718 1.515-1.321 0.402-0.365 0.91-0.862 1.524-1.492l1.185-1.116c0.456-0.414 0.845-0.754 1.166-1.018 0.321-0.255 0.558-0.452 0.712-0.592s0.27-0.191 0.349-0.154c0.079 0.028 0.207 0.138 0.382 0.332 0.122 0.134 0.238 0.282 0.349 0.443 0.111 0.162 0.243 0.327 0.395 0.496 0.122 0.134 0.158 0.269 0.109 0.404-0.054 0.13-0.185 0.29-0.393 0.479-0.213 0.194-0.396 0.341-0.548 0.443-0.561 0.409-1.625 1.325-3.192 2.749-0.952 0.865-1.631 1.498-2.035 1.901-0.304 0.313-0.829 0.807-1.572 1.482l-2.691 2.388c-0.326 0.259-0.697 0.578-1.114 0.957-0.268 0.243-0.476 0.368-0.623 0.375-0.148 0.017-0.292-0.052-0.431-0.205l-0.382-0.481c-0.052-0.097-0.121-0.193-0.207-0.288-0.054-0.06-0.19-0.189-0.408-0.39-0.218-0.2-0.595-0.596-1.131-1.186-0.522-0.575-1.389-1.495-2.599-2.758-1.032-1.018-1.999-2.022-2.899-3.014-0.378-0.417-1.43-1.67-3.155-3.76-0.345-0.42-0.69-0.84-1.035-1.259-0.345-0.42-0.664-0.791-0.957-1.114-2.009-2.213-3.365-3.647-4.068-4.302-0.469-0.407-0.398-0.887 0.212-1.441 0.154-0.14 0.42-0.345 0.798-0.616 0.334-0.24 0.578-0.43 0.732-0.569l1.761-1.694c1.223-1.255 2.186-2.202 2.891-2.841 0.824-0.748 1.997-1.777 3.522-3.089 0.494-0.412 1.009-0.862 1.545-1.348 0.228-0.207 0.424-0.281 0.587-0.221 0.158 0.065 0.289 0.163 0.391 0.297 0.103 0.133 0.172 0.219 0.208 0.259z" data-fill-palette-color="secondary"/>
<path d="m246.58 177.69c0.762-2.111 1.739-3.525 2.931-4.241 1.188-0.725 1.815-1.101 1.881-1.127 0.259-0.184 0.473-0.246 0.644-0.184 0.095 0.034 0.175 0.117 0.242 0.247 0.067 0.11 0.219 0.332 0.454 0.667 0.238 0.328 0.335 0.552 0.292 0.671-0.046 0.126-0.162 0.262-0.351 0.408l-0.309 0.177c-2.003 1.364-3.241 2.701-3.714 4.012-0.603 1.67-0.679 3.074-0.229 4.213 0.459 1.135 1.269 1.911 2.429 2.33 0.996 0.36 1.975 0.311 2.938-0.147 0.959-0.466 1.964-1.168 3.015-2.106 0.266-0.282 0.527-0.582 0.785-0.902 0.897-1.044 1.769-1.929 2.615-2.657 0.851-0.719 1.933-1.25 3.248-1.595 1.323-0.349 2.784-0.234 4.385 0.344 2.735 0.988 4.27 2.596 4.604 4.826 0.332 2.236 0.083 4.504-0.747 6.804-0.482 1.336-1.224 2.432-2.224 3.289-0.994 0.859-1.804 1.436-2.43 1.73-0.303 0.168-0.542 0.15-0.717-0.056-0.044-0.037-0.203-0.208-0.477-0.514-0.268-0.303-0.376-0.527-0.324-0.673l0.027-0.076c0.025-0.069 0.065-0.13 0.119-0.181 0.061-0.049 0.153-0.098 0.277-0.146 0.133-0.052 0.281-0.116 0.444-0.192 0.429-0.201 1.011-0.689 1.747-1.464 0.729-0.777 1.203-1.468 1.421-2.072 0.464-1.286 0.633-2.61 0.505-3.974-0.121-1.362-1.067-2.362-2.837-3.002-0.75-0.271-1.526-0.173-2.328 0.292-0.796 0.468-1.822 1.269-3.08 2.404l-1.446 1.251c-1.583 1.345-3.105 2.295-4.566 2.85s-3.099 0.505-4.914-0.15c-1.506-0.544-2.661-1.449-3.465-2.715-0.8-1.258-1.258-2.641-1.375-4.151-0.111-1.508 0.066-2.904 0.53-4.19z" data-fill-palette-color="secondary"/>
</g>
</svg>
</svg>
</svg>
</svg>
</svg>
<rect width="279.72" height="279.72" fill="none" visibility="hidden"/>
</g>
</svg>
</g>
</svg>
